<svg xmlns="http://www.w3.org/2000/svg" viewBox="0 0 512 512" role="img" aria-labelledby="title desc">
  <title>Investing Tesis &amp; Cursos</title>
  <desc>Logo académico azul y dorado de Investing Tesis &amp; Cursos</desc>
  <defs>
    <linearGradient id="g1" x1="0" y1="0" x2="1" y2="1">
      <stop offset="0%" stop-color="#0b4ea2"/>
      <stop offset="55%" stop-color="#123c7c"/>
      <stop offset="100%" stop-color="#061a3a"/>
    </linearGradient>
    <linearGradient id="g2" x1="0" y1="0" x2="1" y2="1">
      <stop offset="0%" stop-color="#ffd66b"/>
      <stop offset="100%" stop-color="#d89b22"/>
    </linearGradient>
    <filter id="shadow" x="-20%" y="-20%" width="140%" height="140%">
      <feDropShadow dx="0" dy="18" stdDeviation="18" flood-color="#061a3a" flood-opacity="0.22"/>
    </filter>
  </defs>
  <rect width="512" height="512" rx="116" fill="url(#g1)"/>
  <circle cx="392" cy="112" r="72" fill="#2ea8ff" opacity="0.18"/>
  <circle cx="118" cy="390" r="96" fill="#ffffff" opacity="0.08"/>
  <g filter="url(#shadow)">
    <path d="M132 152c0-19 15-34 34-34h180c19 0 34 15 34 34v210c0 18-15 32-33 32H166c-19 0-34-15-34-34V152z" fill="#ffffff"/>
    <path d="M172 168h168v28H172zM172 224h168v18H172zM172 260h128v18H172zM172 296h154v18H172z" fill="#123c7c" opacity="0.88"/>
    <path d="M174 356h164" stroke="#d89b22" stroke-width="18" stroke-linecap="round"/>
  </g>
  <path d="M122 126l134-54 134 54-134 54-134-54z" fill="url(#g2)"/>
  <path d="M356 140v70" stroke="#d89b22" stroke-width="18" stroke-linecap="round"/>
  <circle cx="356" cy="226" r="20" fill="url(#g2)"/>
  <text x="256" y="438" text-anchor="middle" font-family="Inter, Arial, sans-serif" font-size="44" font-weight="900" fill="#ffffff">INVESTING</text>
  <text x="256" y="472" text-anchor="middle" font-family="Inter, Arial, sans-serif" font-size="23" font-weight="700" fill="#ffd66b">Tesis &amp; Cursos</text>
</svg>
